<?xml version="1.0" encoding="utf-8"?>
<!-- Generator: Adobe Illustrator 16.0.0, SVG Export Plug-In . SVG Version: 6.00 Build 0)  -->
<!DOCTYPE svg PUBLIC "-//W3C//DTD SVG 1.1//EN" "http://www.w3.org/Graphics/SVG/1.1/DTD/svg11.dtd">
<svg version="1.1" id="Layer_1" xmlns="http://www.w3.org/2000/svg" xmlns:xlink="http://www.w3.org/1999/xlink" x="0px" y="0px"
	 width="256px" height="256px" viewBox="0 0 256 256" enable-background="new 0 0 256 256" xml:space="preserve">
<rect fill="#2D96C8" width="256" height="256"/>
<polyline fill="#006FA6" points="93.51,13.497 78.503,28.503 78.5,66 156.126,65.96 162.55,59.536 "/>
<polyline fill="#006FA6" points="172.072,13.497 157.065,28.503 157.063,66 234.688,65.96 241.112,59.536 "/>
<polyline fill="#006FA6" points="15.01,13.497 0.003,28.503 0,66 77.627,65.96 84.05,59.536 "/>
<polyline fill="#006FA6" points="15.01,195.412 0.003,210.42 0,256 69.501,256.002 84.05,241.452 "/>
<polyline fill="#006FA6" points="93.546,195.412 78.54,210.42 57.125,256 148.037,256.002 162.586,241.452 "/>
<polyline fill="#006FA6" points="171.984,195.412 156.977,210.42 135.563,256 226.475,256.002 241.023,241.452 "/>
<g>
	<rect x="16.51" y="14.997" fill="#FFFFFF" width="66" height="43"/>
	<path fill="#E6E6E6" d="M81.01,16.497v40h-63v-40H81.01 M84.01,13.497h-69v46h69V13.497L84.01,13.497z"/>
</g>
<g>
	<rect y="66" width="256.167" height="122.666"/>
</g>
<g>
	<rect x="95" y="14.997" fill="#FFFFFF" width="66" height="43"/>
	<path fill="#E6E6E6" d="M159.5,16.497v40h-63v-40H159.5 M162.5,13.497h-69v46h69V13.497L162.5,13.497z"/>
</g>
<g>
	<rect x="173.493" y="14.997" fill="#FFFFFF" width="66" height="43"/>
	<path fill="#E6E6E6" d="M237.993,16.497v40h-63v-40H237.993 M240.993,13.497h-69v46h69V13.497L240.993,13.497z"/>
</g>
<g>
	<rect x="172.468" y="99.136" fill="#FFFFFF" width="27.873" height="18.16"/>
	<path fill="#E6E6E6" d="M199.708,99.77v16.893h-26.607V99.77H199.708 M200.975,98.503h-29.141v19.427h29.141V98.503L200.975,98.503
		z"/>
</g>
<g>
	<rect x="205.618" y="99.136" fill="#FFFFFF" width="27.873" height="18.16"/>
	<path fill="#E6E6E6" d="M232.858,99.77v16.893h-26.607V99.77H232.858 M234.125,98.503h-29.141v19.427h29.141V98.503L234.125,98.503
		z"/>
</g>
<g>
	<rect x="172.468" y="123.14" fill="#FFFFFF" width="27.873" height="18.163"/>
	<path fill="#E6E6E6" d="M199.708,123.773v16.897h-26.607v-16.897H199.708 M200.975,122.506h-29.141v19.429h29.141V122.506
		L200.975,122.506z"/>
</g>
<g>
	<rect x="205.618" y="123.14" fill="#FFFFFF" width="27.873" height="18.163"/>
	<path fill="#E6E6E6" d="M232.858,123.773v16.897h-26.607v-16.897H232.858 M234.125,122.506h-29.141v19.429h29.141V122.506
		L234.125,122.506z"/>
</g>
<g>
	<rect x="172.468" y="147.146" fill="#FFFFFF" width="27.873" height="18.16"/>
	<path fill="#E6E6E6" d="M199.708,147.779v16.895h-26.607v-16.895H199.708 M200.975,146.512h-29.141v19.428h29.141V146.512
		L200.975,146.512z"/>
</g>
<g>
	<rect x="16.51" y="196.996" fill="#FFFFFF" width="66" height="43"/>
	<path fill="#E6E6E6" d="M81.01,198.496v40h-63v-40H81.01 M84.01,195.496h-69v46h69V195.496L84.01,195.496z"/>
</g>
<g>
	<rect x="95" y="196.996" fill="#FFFFFF" width="66" height="43"/>
	<path fill="#E6E6E6" d="M159.5,198.496v40h-63v-40H159.5 M162.5,195.496h-69v46h69V195.496L162.5,195.496z"/>
</g>
<g>
	<rect x="173.493" y="196.996" fill="#FFFFFF" width="66" height="43"/>
	<path fill="#E6E6E6" d="M237.993,198.496v40h-63v-40H237.993 M240.993,195.496h-69v46h69V195.496L240.993,195.496z"/>
</g>
<rect x="120.667" y="63.999" transform="matrix(-0.7071 0.7071 -0.7071 -0.7071 268.95 31.2628)" width="14.666" height="14.667"/>
<g>
	<rect x="16" y="72.75" fill="#FFFFFF" width="146" height="109.583"/>
	<path fill="#E6E6E6" d="M161,73.75v107.583H17V73.75H161 M163,71.75H15v111.583h148V71.75L163,71.75z"/>
</g>
<rect x="171.83" y="72.167" fill="#FFFFFF" width="62.25" height="7.25"/>
<rect x="171.83" y="83.167" fill="#FFFFFF" width="62.25" height="1.25"/>
<rect x="171.83" y="87.167" fill="#FFFFFF" width="30.504" height="1.25"/>
<rect x="171.83" y="177.583" fill="#FFFFFF" width="62.25" height="1.25"/>
<rect x="171.83" y="173.333" fill="#FFFFFF" width="62.25" height="1.25"/>
<rect x="171.83" y="181.583" fill="#FFFFFF" width="30.504" height="1.25"/>
<rect x="241.104" y="66.521" fill="#FFFFFF" width="4.479" height="4.479"/>
<path fill-rule="evenodd" clip-rule="evenodd" d="M244.634,69.608l-0.855-0.858l0.857-0.847c0.035-0.035,0.035-0.093,0-0.128
	l-0.243-0.245c-0.018-0.017-0.04-0.026-0.064-0.026c-0.023,0-0.047,0.01-0.063,0.026l-0.854,0.845l-0.855-0.844
	c-0.017-0.017-0.039-0.026-0.063-0.026s-0.047,0.01-0.064,0.026l-0.243,0.245c-0.035,0.035-0.035,0.092,0,0.127l0.857,0.847
	l-0.854,0.858c-0.017,0.017-0.026,0.04-0.026,0.064c0,0.024,0.009,0.047,0.026,0.063l0.244,0.245
	c0.018,0.018,0.04,0.027,0.063,0.027s0.047-0.008,0.064-0.027l0.852-0.855l0.852,0.854c0.019,0.018,0.041,0.027,0.064,0.027
	c0.022,0,0.046-0.009,0.063-0.027l0.244-0.245c0.017-0.017,0.026-0.04,0.026-0.064C244.661,69.647,244.651,69.625,244.634,69.608z"
	/>
<path fill-rule="evenodd" clip-rule="evenodd" fill="#2D96C8" d="M125.984,122.332c-0.052,1.183-0.927,2.021-2.19,2.079
	c-0.527,0.024-1.055,0.017-1.583,0.019c-0.527,0.003-1.055,0.001-1.583,0.001c0-0.002,0-0.004,0-0.006
	c-1.055,0-2.11,0.028-3.165-0.007c-1.213-0.04-2.073-0.877-2.149-2.022c-0.078-1.19,0.689-2.245,1.928-2.304
	c2.259-0.106,4.528-0.13,6.787-0.042C125.308,120.102,126.037,121.104,125.984,122.332z M123.138,104.051
	c-1.854,1.4-3.755,2.747-5.707,4.009c-0.93,0.603-2.16,0.18-2.784-0.735c-0.624-0.913-0.538-2.167,0.374-2.854
	c1.807-1.362,3.681-2.637,5.549-3.915c0.287-0.195,0.695-0.216,0.874-0.268c1.155,0.052,1.858,0.499,2.222,1.388
	C124.031,102.573,123.891,103.482,123.138,104.051z M106.288,94.721c-0.405,0.733-1.093,1.077-1.733,1.086
	c-1.798-0.025-2.879-1.643-2.166-3.116c0.946-1.957,1.993-3.866,3.074-5.751c0.605-1.056,1.916-1.341,2.94-0.788
	c1.012,0.548,1.463,1.812,0.915,2.899C108.352,90.963,107.325,92.845,106.288,94.721z M108.335,114.523
	c0.782,3.989-0.224,7.707-1.794,11.338c-2.009,4.646-4.564,8.986-7.403,13.154c-0.891,1.308-1.309,2.592-1.225,4.151
	c0.092,1.717,0.021,1.719,1.641,2.228c1.356,0.425,2.248,1.8,2.061,3.175c-0.19,1.397-1.398,2.62-2.798,2.515
	c-1.983-0.152-3.697,0.482-5.441,1.284c-4.518,2.078-9.074,4.075-13.613,6.109c-1.805,0.809-3.313,0.318-4.047-1.333
	c-0.738-1.659-0.12-3.11,1.681-3.929c1.413-0.643,2.83-1.274,4.245-1.911c-0.006-0.062-0.013-0.125-0.02-0.188
	c-1.672,0-3.346,0.032-5.019-0.01c-1.366-0.034-2.538-1.083-2.755-2.363c-0.241-1.419,0.457-2.773,1.76-3.252
	c0.541-0.199,1.145-0.227,1.823-0.352c-0.065-2.065,0.34-4.079-1.084-6.083c-3.153-4.44-5.849-9.176-7.898-14.251
	c-3.268-8.091-1.532-15.313,4.306-21.425c5.753-6.023,13.012-7.864,20.977-5.452C101.889,100.4,106.695,106.16,108.335,114.523z
	 M87.968,91.702c-1.248-0.031-2.154-1.029-2.166-2.434c-0.016-1.957-0.018-3.915-0.002-5.872c0.011-1.403,0.929-2.353,2.222-2.342
	c1.305,0.01,2.189,0.935,2.218,2.353c0.02,0.995,0.004,1.989,0.004,2.983c0.002,0,0.005,0,0.007,0c0,0.962,0.013,1.926-0.003,2.889
	C90.225,90.708,89.249,91.734,87.968,91.702z M72.585,95.564c-1.062,0.551-2.361,0.188-2.973-0.919
	c-1.007-1.821-1.995-3.653-2.917-5.517c-0.789-1.593,0.234-3.242,1.931-3.226c0.849,0.005,1.522,0.368,1.923,1.103
	c1.013,1.853,2.018,3.711,2.962,5.598C74.085,93.75,73.64,95.017,72.585,95.564z M58.473,108.003
	c-1.89-1.188-3.704-2.506-5.491-3.848c-0.944-0.709-1.039-2-0.381-2.935c0.65-0.924,1.917-1.267,2.896-0.621
	c1.84,1.212,3.647,2.479,5.398,3.817c0.461,0.354,0.662,1.047,0.983,1.583C61.707,107.791,59.919,108.91,58.473,108.003z
	 M59.024,120.143c1.022,0.051,1.754,1.209,1.678,2.248c-0.076,1.05-0.926,1.972-1.974,2.02c-1.147,0.052-2.298,0.012-3.447,0.012
	c0-0.003,0-0.006,0-0.009c-1.025,0-2.051,0.024-3.075-0.006c-1.197-0.036-2.077-0.884-2.156-2.018
	c-0.08-1.168,0.628-2.263,1.814-2.311C54.248,119.982,56.642,120.023,59.024,120.143z M75.567,165.744
	c-0.43-1.554,0.053-2.807,1.542-3.479c6.316-2.848,12.644-5.67,18.981-8.468c1.458-0.645,2.991,0.044,3.627,1.506
	c0.683,1.571,0.114,3.115-1.437,3.813c-3.938,1.771-7.882,3.527-11.824,5.294c-0.14,0.063-0.274,0.138-0.411,0.209
	c0.002,0.06,0.005,0.122,0.007,0.183c2.325,0,4.65,0.012,6.975-0.016c0.285-0.003,0.582-0.19,0.848-0.339
	c0.841-0.468,1.665-0.971,2.508-1.438c1.115-0.617,1.995-0.585,2.772,0.07c1.001,0.845,1.465,2.307,1.125,3.353
	c-0.125,0.383-0.188,0.823-0.138,1.222c0.252,1.991-1.167,3.729-3.178,3.813c-0.746,0.031-1.5,0.074-2.238-0.006
	c-1.565-0.175-2.927,0.257-4.183,1.164c-0.452,0.326-0.952,0.589-1.438,0.864c-1.448,0.818-2.688,0.546-3.443-0.939
	c-0.45-0.887-0.982-1.155-1.94-1.101c-1.613,0.091-3.234,0.041-4.853,0.028c-2.769-0.024-4.227-2.169-3.291-4.777
	C75.682,166.418,75.651,166.045,75.567,165.744z"/>
<g>
	<path fill-rule="evenodd" clip-rule="evenodd" fill="#2D96C8" d="M181.533,108.461c-0.065-0.109-0.105-0.25-0.2-0.322
		c-0.355-0.272-0.723-0.53-1.098-0.776c-0.198-0.131-0.456-0.062-0.589,0.126c-0.134,0.19-0.114,0.453,0.078,0.598
		c0.363,0.272,0.731,0.541,1.116,0.782C181.135,109.053,181.498,108.825,181.533,108.461z"/>
	<path fill-rule="evenodd" clip-rule="evenodd" fill="#2D96C8" d="M179.128,111.794c0.016,0.23,0.195,0.402,0.438,0.41
		c0.208,0.006,0.417,0.001,0.625,0.001c0,0.001,0,0.001,0,0.002c0.234,0,0.469,0.008,0.701-0.002
		c0.213-0.01,0.387-0.197,0.401-0.411c0.016-0.211-0.133-0.446-0.341-0.457c-0.484-0.024-0.972-0.033-1.456-0.013
		C179.256,111.334,179.112,111.556,179.128,111.794z"/>
	<path fill-rule="evenodd" clip-rule="evenodd" fill="#2D96C8" d="M189.195,116.473c-0.329-0.104-0.314-0.104-0.334-0.453
		c-0.017-0.317,0.068-0.578,0.249-0.845c0.578-0.848,1.098-1.73,1.506-2.675c0.319-0.738,0.524-1.495,0.365-2.306
		c-0.334-1.701-1.312-2.873-2.971-3.375c-1.619-0.491-3.096-0.116-4.266,1.109c-1.187,1.243-1.54,2.711-0.876,4.357
		c0.417,1.032,0.965,1.995,1.606,2.898c0.29,0.407,0.207,0.817,0.221,1.237c-0.138,0.025-0.261,0.03-0.371,0.071
		c-0.097,0.036-0.17,0.1-0.23,0.175h5.377C189.399,116.581,189.309,116.508,189.195,116.473z"/>
	<path fill-rule="evenodd" clip-rule="evenodd" fill="#2D96C8" d="M183.711,106.338c0.215-0.111,0.305-0.369,0.188-0.602
		c-0.192-0.384-0.396-0.762-0.603-1.138c-0.082-0.149-0.219-0.223-0.392-0.225c-0.345-0.003-0.553,0.332-0.393,0.656
		c0.188,0.379,0.389,0.751,0.594,1.122C183.23,106.376,183.495,106.451,183.711,106.338z"/>
	<path fill-rule="evenodd" clip-rule="evenodd" fill="#2D96C8" d="M194.173,111.318c-0.459-0.019-0.921-0.014-1.38,0.008
		c-0.252,0.013-0.408,0.227-0.393,0.469c0.016,0.233,0.19,0.403,0.438,0.411c0.214,0.008,0.429,0.002,0.644,0.002v0.001
		c0.107,0,0.215,0,0.321,0c0.107-0.001,0.215,0.001,0.322-0.004c0.257-0.012,0.435-0.183,0.445-0.423
		C194.581,111.532,194.433,111.328,194.173,111.318z"/>
	<path fill-rule="evenodd" clip-rule="evenodd" fill="#2D96C8" d="M192.831,108.88c0.396-0.257,0.783-0.53,1.16-0.815
		c0.153-0.116,0.182-0.301,0.107-0.483c-0.073-0.181-0.217-0.272-0.451-0.282c-0.037,0.01-0.12,0.015-0.178,0.054
		c-0.38,0.26-0.762,0.519-1.129,0.796c-0.186,0.141-0.203,0.396-0.076,0.581S192.642,109.002,192.831,108.88z"/>
	<path fill-rule="evenodd" clip-rule="evenodd" fill="#2D96C8" d="M186.851,103.388c-0.263-0.002-0.45,0.191-0.452,0.476
		c-0.003,0.398-0.003,0.796,0,1.194c0.003,0.286,0.187,0.489,0.44,0.495c0.261,0.006,0.459-0.203,0.464-0.493
		c0.004-0.195,0.001-0.392,0.001-0.587c-0.001,0-0.001,0-0.002,0c0-0.202,0.004-0.404,0-0.606
		C187.296,103.578,187.116,103.39,186.851,103.388z"/>
	<path fill-rule="evenodd" clip-rule="evenodd" fill="#2D96C8" d="M190.564,106.167c0.211-0.382,0.42-0.764,0.616-1.153
		c0.112-0.221,0.021-0.478-0.186-0.589c-0.208-0.113-0.475-0.055-0.598,0.16c-0.22,0.383-0.433,0.772-0.626,1.169
		c-0.145,0.3,0.075,0.629,0.44,0.634C190.343,106.386,190.482,106.316,190.564,106.167z"/>
</g>
<g>
	<path fill-rule="evenodd" clip-rule="evenodd" fill="#2D96C8" d="M216.178,104.928c0.448,0.63,0.32,1.265,0.341,1.914
		c-0.213,0.039-0.403,0.047-0.573,0.11c-0.41,0.151-0.631,0.577-0.554,1.022c0.068,0.404,0.437,0.733,0.866,0.744
		c0.527,0.014,1.053,0.003,1.58,0.003c0.001,0.02,0.005,0.041,0.006,0.059c-0.445,0.201-0.892,0.4-1.335,0.601
		c-0.567,0.258-0.762,0.714-0.53,1.237c0.23,0.518,0.705,0.674,1.273,0.418c1.429-0.639,2.861-1.268,4.284-1.922
		c0.548-0.252,1.086-0.452,1.712-0.405c0.439,0.033,0.82-0.351,0.879-0.79c0.059-0.434-0.221-0.866-0.648-0.999
		c-0.509-0.16-0.486-0.162-0.517-0.701c-0.025-0.491,0.106-0.894,0.386-1.307c0.895-1.311,1.698-2.677,2.329-4.138
		c0.141-0.325,0.26-0.653,0.363-0.984h-12.563c0.065,0.216,0.127,0.432,0.216,0.652C214.338,102.041,215.185,103.53,216.178,104.928
		z"/>
	<path fill-rule="evenodd" clip-rule="evenodd" fill="#2D96C8" d="M208.583,100.318c0.322,0.009,0.646,0.001,0.967,0.001
		c0,0.001,0,0.001,0,0.003c0.362,0,0.726,0.012,1.085-0.003c0.292-0.013,0.525-0.246,0.594-0.528h-3.297
		C208.001,100.09,208.248,100.308,208.583,100.318z"/>
	<path fill-rule="evenodd" clip-rule="evenodd" fill="#2D96C8" d="M228.464,99.792c0.066,0.302,0.309,0.519,0.65,0.529
		c0.33,0.012,0.663,0.003,0.995,0.003v0.001c0.166,0,0.332,0,0.497,0c0.166-0.001,0.332,0.001,0.498-0.006
		c0.349-0.016,0.592-0.227,0.66-0.528H228.464z"/>
	<path fill-rule="evenodd" clip-rule="evenodd" fill="#2D96C8" d="M220.191,115.761c0.154-0.088,0.312-0.169,0.453-0.272
		c0.395-0.286,0.823-0.421,1.316-0.367c0.23,0.026,0.47,0.012,0.703,0.003c0.634-0.027,1.079-0.574,1.001-1.201
		c-0.016-0.124,0.003-0.263,0.042-0.384c0.107-0.33-0.038-0.789-0.354-1.055c-0.245-0.207-0.521-0.216-0.872-0.022
		c-0.266,0.146-0.524,0.305-0.788,0.453c-0.085,0.045-0.177,0.105-0.268,0.105c-0.731,0.009-1.463,0.005-2.193,0.005
		c-0.002-0.018-0.002-0.038-0.003-0.058c0.044-0.021,0.086-0.045,0.13-0.065c1.24-0.556,2.48-1.109,3.719-1.667
		c0.488-0.219,0.667-0.704,0.452-1.199c-0.199-0.459-0.682-0.677-1.141-0.473c-1.994,0.879-3.985,1.768-5.972,2.664
		c-0.469,0.211-0.621,0.606-0.485,1.094c0.025,0.095,0.036,0.213,0.003,0.302c-0.293,0.82,0.165,1.496,1.036,1.503
		c0.51,0.003,1.021,0.02,1.526-0.009c0.302-0.017,0.468,0.066,0.61,0.346c0.079,0.156,0.182,0.255,0.292,0.327h0.712
		C220.14,115.779,220.164,115.777,220.191,115.761z"/>
</g>
<g>
	<path fill-rule="evenodd" clip-rule="evenodd" fill="#2D96C8" d="M174.436,126.847c-0.367-0.004-0.629,0.266-0.632,0.665
		c-0.004,0.557-0.004,1.113,0,1.668c0.004,0.399,0.261,0.684,0.615,0.691c0.364,0.01,0.642-0.282,0.648-0.689
		c0.005-0.272,0.001-0.546,0.001-0.819c-0.001,0-0.001,0-0.003,0c0-0.282,0.006-0.565,0-0.847
		C175.058,127.111,174.807,126.849,174.436,126.847z"/>
	<path fill-rule="evenodd" clip-rule="evenodd" fill="#2D96C8" d="M180.206,136.355c-0.467-2.376-1.832-4.012-4.15-4.715
		c-1.011-0.306-1.978-0.356-2.888-0.183v9.168h6.032c0.175-0.344,0.342-0.692,0.496-1.048
		C180.142,138.547,180.429,137.488,180.206,136.355z"/>
	<path fill-rule="evenodd" clip-rule="evenodd" fill="#2D96C8" d="M179.624,130.728c0.294-0.531,0.586-1.066,0.86-1.609
		c0.157-0.31,0.028-0.668-0.259-0.824c-0.291-0.157-0.663-0.076-0.835,0.224c-0.308,0.537-0.604,1.079-0.875,1.634
		c-0.202,0.419,0.105,0.88,0.615,0.886C179.313,131.035,179.509,130.938,179.624,130.728z"/>
	<path fill-rule="evenodd" clip-rule="evenodd" fill="#2D96C8" d="M182.79,134.52c0.554-0.357,1.094-0.739,1.621-1.138
		c0.214-0.163,0.254-0.421,0.149-0.676c-0.102-0.252-0.303-0.381-0.63-0.395c-0.052,0.014-0.168,0.021-0.248,0.077
		c-0.531,0.362-1.064,0.724-1.577,1.11c-0.26,0.196-0.284,0.554-0.106,0.813C182.176,134.571,182.525,134.691,182.79,134.52z"/>
	<path fill-rule="evenodd" clip-rule="evenodd" fill="#2D96C8" d="M184.665,137.928c-0.642-0.027-1.287-0.02-1.928,0.011
		c-0.353,0.016-0.57,0.316-0.549,0.654c0.021,0.325,0.266,0.563,0.611,0.573c0.299,0.011,0.599,0.003,0.898,0.003v0.003
		c0.15,0,0.301,0,0.449,0c0.15-0.003,0.3,0,0.45-0.006c0.359-0.017,0.607-0.257,0.622-0.592
		C185.234,138.225,185.027,137.94,184.665,137.928z"/>
</g>
<g>
	<path fill-rule="evenodd" clip-rule="evenodd" fill="#2D96C8" d="M179.393,149.17c0.113,0.678,0.73,1.229,1.448,1.244
		c0.882,0.024,1.762,0.005,2.644,0.005c0.003,0.035,0.008,0.07,0.01,0.101c-0.745,0.334-1.491,0.667-2.233,1.006
		c-0.948,0.43-1.274,1.193-0.888,2.067c0.387,0.87,1.181,1.128,2.131,0.703c2.391-1.072,4.787-2.123,7.168-3.215
		c0.917-0.425,1.816-0.759,2.863-0.678c0.735,0.056,1.372-0.586,1.471-1.324c0.066-0.487-0.139-0.961-0.488-1.295h-13.693
		C179.472,148.127,179.3,148.638,179.393,149.17z"/>
	<path fill-rule="evenodd" clip-rule="evenodd" fill="#2D96C8" d="M182.036,161.14c0.852,0.005,1.706,0.03,2.553-0.015
		c0.506-0.03,0.783,0.111,1.021,0.576c0.396,0.783,1.051,0.925,1.812,0.495c0.258-0.146,0.521-0.283,0.759-0.455
		c0.659-0.475,1.377-0.702,2.201-0.611c0.387,0.04,0.786,0.021,1.178,0.005c1.059-0.046,1.805-0.96,1.673-2.012
		c-0.025-0.207,0.005-0.439,0.071-0.642c0.179-0.552-0.063-1.319-0.592-1.765c-0.409-0.344-0.872-0.358-1.458-0.035
		c-0.445,0.242-0.877,0.511-1.319,0.758c-0.142,0.076-0.296,0.177-0.447,0.177c-1.224,0.016-2.447,0.006-3.67,0.006
		c-0.003-0.03-0.003-0.061-0.005-0.097c0.073-0.035,0.144-0.075,0.217-0.105c2.075-0.931,4.15-1.855,6.223-2.791
		c0.816-0.363,1.114-1.178,0.756-2.007c-0.334-0.768-1.14-1.132-1.908-0.788c-3.336,1.471-6.667,2.957-9.991,4.453
		c-0.783,0.354-1.038,1.017-0.812,1.83c0.043,0.162,0.062,0.358,0.006,0.506C179.813,159.997,180.578,161.125,182.036,161.14z"/>
</g>
<g>
	<path fill-rule="evenodd" clip-rule="evenodd" fill="#2D96C8" d="M209.038,128.252c-0.257,0.366-0.219,0.869,0.15,1.146
		c0.696,0.522,1.401,1.038,2.14,1.501c0.564,0.354,1.261-0.083,1.328-0.782c-0.126-0.208-0.202-0.479-0.384-0.617
		c-0.683-0.522-1.386-1.016-2.104-1.489C209.787,127.758,209.293,127.891,209.038,128.252z"/>
	<path fill-rule="evenodd" clip-rule="evenodd" fill="#2D96C8" d="M215.673,125.688c0.237,0.432,0.746,0.574,1.158,0.358
		c0.413-0.213,0.585-0.708,0.362-1.154c-0.187-0.371-0.388-0.734-0.583-1.101h-1.941
		C214.991,124.43,215.326,125.062,215.673,125.688z"/>
	<path fill-rule="evenodd" clip-rule="evenodd" fill="#2D96C8" d="M225.077,126.969c-3.104-0.941-5.937-0.223-8.18,2.126
		c-2.275,2.383-2.953,5.2-1.68,8.354c0.444,1.101,0.974,2.155,1.561,3.177h11.896c0.515-0.894,0.987-1.812,1.398-2.764
		c0.613-1.417,1.007-2.868,0.701-4.422C230.133,130.179,228.258,127.932,225.077,126.969z"/>
	<path fill-rule="evenodd" clip-rule="evenodd" fill="#2D96C8" d="M223.682,123.792h-1.662c0.081,0.436,0.388,0.739,0.81,0.75
		C223.266,124.552,223.596,124.239,223.682,123.792z"/>
	<path fill-rule="evenodd" clip-rule="evenodd" fill="#2D96C8" d="M229.036,123.792c-0.202,0.375-0.397,0.752-0.583,1.135
		c-0.277,0.575,0.145,1.206,0.845,1.215c0.251-0.004,0.519-0.138,0.676-0.424c0.353-0.638,0.696-1.279,1.029-1.926H229.036z"/>
	<path fill-rule="evenodd" clip-rule="evenodd" fill="#2D96C8" d="M208.885,137.294c0.399,0.011,0.8,0.001,1.198,0.001
		c0,0.003,0,0.003,0,0.005c0.449,0,0.899,0.015,1.345-0.005c0.408-0.018,0.741-0.377,0.77-0.787
		c0.029-0.404-0.255-0.856-0.653-0.877c-0.93-0.047-1.863-0.063-2.793-0.024c-0.462,0.02-0.736,0.444-0.708,0.901
		C208.073,136.949,208.419,137.279,208.885,137.294z"/>
</g>
<path fill-rule="evenodd" clip-rule="evenodd" fill="#2D96C8" d="M138.069,35.17c-0.017,0.362-0.284,0.618-0.67,0.635
	c-0.161,0.008-0.321,0.005-0.482,0.006c-0.162,0.001-0.324,0-0.484,0c0,0,0-0.001,0-0.002c-0.323,0-0.646,0.009-0.968-0.002
	c-0.37-0.012-0.635-0.268-0.656-0.618c-0.025-0.363,0.211-0.686,0.589-0.704c0.69-0.033,1.385-0.04,2.074-0.013
	C137.862,34.489,138.086,34.795,138.069,35.17z M137.199,29.583c-0.567,0.428-1.148,0.839-1.744,1.225
	c-0.285,0.184-0.661,0.055-0.851-0.225c-0.191-0.279-0.166-0.662,0.114-0.872c0.552-0.416,1.125-0.806,1.695-1.196
	c0.088-0.06,0.213-0.066,0.267-0.082c0.353,0.016,0.568,0.152,0.68,0.424C137.472,29.131,137.429,29.409,137.199,29.583z
	 M132.049,26.731c-0.124,0.224-0.334,0.329-0.529,0.332c-0.551-0.007-0.881-0.502-0.662-0.952c0.289-0.598,0.609-1.182,0.939-1.758
	c0.186-0.323,0.586-0.41,0.898-0.24c0.31,0.167,0.447,0.553,0.28,0.886C132.679,25.583,132.366,26.158,132.049,26.731z
	 M132.675,32.784c0.239,1.219-0.068,2.356-0.548,3.466c-0.614,1.419-1.396,2.746-2.263,4.02c-0.272,0.4-0.401,0.792-0.375,1.269
	c0.028,0.524,0.007,0.525,0.502,0.681c0.414,0.129,0.687,0.549,0.63,0.97c-0.059,0.427-0.428,0.8-0.855,0.769
	c-0.606-0.047-1.13,0.147-1.664,0.392c-1.38,0.635-2.773,1.246-4.161,1.868c-0.552,0.247-1.012,0.097-1.237-0.408
	c-0.226-0.507-0.036-0.951,0.514-1.201c0.432-0.197,0.865-0.39,1.297-0.584c-0.002-0.019-0.004-0.039-0.006-0.058
	c-0.511,0-1.022,0.01-1.534-0.003c-0.417-0.01-0.775-0.331-0.842-0.723c-0.074-0.433,0.14-0.848,0.538-0.993
	c0.165-0.061,0.35-0.069,0.557-0.108c-0.02-0.631,0.104-1.247-0.332-1.859c-0.964-1.357-1.788-2.804-2.414-4.356
	c-0.999-2.473-0.468-4.68,1.316-6.548c1.758-1.841,3.978-2.403,6.412-1.667C130.705,28.467,132.174,30.228,132.675,32.784z
	 M126.449,25.809c-0.381-0.009-0.658-0.314-0.662-0.744c-0.004-0.598-0.005-1.196,0-1.794c0.003-0.428,0.284-0.719,0.679-0.715
	c0.399,0.003,0.669,0.286,0.678,0.719c0.006,0.304,0.001,0.608,0.001,0.912c0,0,0.001,0,0.002,0c0,0.294,0.004,0.589-0.001,0.883
	C127.14,25.505,126.841,25.818,126.449,25.809z M121.748,26.989c-0.324,0.168-0.721,0.057-0.908-0.281
	c-0.308-0.556-0.61-1.116-0.892-1.686c-0.241-0.487,0.071-0.991,0.589-0.986c0.26,0.001,0.465,0.112,0.588,0.337
	c0.31,0.565,0.617,1.134,0.905,1.71C122.207,26.435,122.07,26.822,121.748,26.989z M117.435,30.791
	c-0.578-0.363-1.132-0.766-1.678-1.176c-0.289-0.216-0.317-0.611-0.117-0.897c0.199-0.283,0.586-0.387,0.885-0.19
	c0.562,0.371,1.115,0.758,1.649,1.167c0.142,0.107,0.203,0.319,0.301,0.483C118.423,30.726,117.877,31.068,117.435,30.791z
	 M117.604,34.501c0.312,0.016,0.536,0.37,0.513,0.687c-0.023,0.322-0.283,0.604-0.604,0.618c-0.351,0.016-0.703,0.003-1.054,0.003
	c0-0.001,0-0.001,0-0.003c-0.313,0-0.626,0.008-0.939-0.002c-0.366-0.011-0.635-0.27-0.659-0.616
	c-0.024-0.357,0.192-0.691,0.555-0.706C116.143,34.453,116.875,34.465,117.604,34.501z M122.66,48.439
	c-0.132-0.475,0.016-0.858,0.471-1.063c1.93-0.87,3.864-1.733,5.801-2.587c0.446-0.197,0.915,0.013,1.109,0.46
	c0.208,0.48,0.034,0.952-0.439,1.165c-1.204,0.542-2.41,1.079-3.614,1.618c-0.042,0.019-0.084,0.042-0.125,0.064
	c0,0.018,0.001,0.037,0.002,0.056c0.711,0,1.422,0.003,2.132-0.005c0.086,0,0.177-0.058,0.259-0.103
	c0.257-0.143,0.508-0.297,0.766-0.439c0.341-0.188,0.609-0.179,0.848,0.021c0.307,0.258,0.447,0.705,0.344,1.025
	c-0.037,0.117-0.058,0.251-0.043,0.373c0.078,0.608-0.355,1.14-0.971,1.166c-0.228,0.009-0.458,0.022-0.684-0.002
	c-0.479-0.054-0.895,0.078-1.279,0.355c-0.138,0.1-0.291,0.18-0.439,0.264c-0.442,0.25-0.822,0.167-1.052-0.287
	c-0.138-0.271-0.3-0.353-0.593-0.336c-0.492,0.028-0.988,0.013-1.482,0.009c-0.847-0.007-1.292-0.663-1.006-1.46
	C122.694,48.645,122.685,48.531,122.66,48.439z"/>
<path fill-rule="evenodd" clip-rule="evenodd" fill="#2D96C8" d="M60.857,46.544c-0.604,0.598-1.207,1.205-1.866,1.738
	c-2.295,1.854-4.928,2.95-7.845,3.358c-0.705,0.099-1.422,0.115-1.997,0.159c-4.761-0.116-8.674-1.815-11.86-5.171
	c-0.309-0.325-0.449-0.69-0.313-1.126c0.239-0.759,1.163-0.96,1.754-0.392c0.487,0.469,0.95,0.97,1.474,1.395
	c2.992,2.422,6.417,3.501,10.251,3.112c3.405-0.345,6.294-1.809,8.679-4.268c0.209-0.216,0.467-0.429,0.742-0.527
	c0.44-0.156,0.9,0.072,1.131,0.46C61.256,45.701,61.224,46.18,60.857,46.544z M57.62,34.893c-0.796-0.049-1.429,0.325-1.673,1.009
	c-0.035,0.099-0.016,0.258,0.043,0.342c1.065,1.516,1.586,3.195,1.574,5.047c-0.009,1.464-0.002,2.928-0.002,4.393
	c0,0.064,0.001,0.128-0.003,0.192c-0.03,0.447-0.355,0.768-0.775,0.765c-0.424-0.002-0.754-0.322-0.768-0.772
	c-0.026-0.867-0.179-1.708-0.5-2.515c-1.159-2.913-4.235-4.694-7.319-4.237c-2.945,0.436-5.181,2.528-5.79,5.437
	c-0.085,0.41-0.114,0.833-0.14,1.252c-0.031,0.49-0.323,0.825-0.767,0.834c-0.438,0.01-0.777-0.321-0.784-0.811
	c-0.016-1.208-0.015-2.416-0.016-3.623c-0.003-3.204-0.004-6.406-0.006-9.609c0-0.686,0.001-1.373-0.002-2.059
	c-0.002-0.417-0.204-0.647-0.547-0.639c-0.328,0.007-0.524,0.242-0.525,0.636c-0.002,0.732,0.007,1.464-0.003,2.196
	c-0.014,1.039-0.807,1.953-1.777,2.063c-1.121,0.128-2.061-0.482-2.344-1.538c-0.056-0.209-0.073-0.433-0.076-0.651
	c-0.01-0.613-0.004-1.226-0.004-1.839c0-0.099,0-0.197,0-0.35c-0.367,0.165-0.688,0.309-1.045,0.469
	c-0.032-0.691,0.052-1.335,0.23-1.967c0.825-2.932,3.624-4.855,6.67-4.591c2.887,0.25,5.327,2.564,5.655,5.442
	c0.11,0.967,0.056,1.954,0.076,2.932c0.001,0.089,0,0.179,0,0.298c2.671-0.61,5.093-0.133,7.301,1.497
	c0.056-0.074,0.109-0.144,0.164-0.213c0.857-1.092,1.972-1.602,3.362-1.46c0.613,0.063,0.986,0.556,0.925,1.174
	C58.7,34.524,58.19,34.928,57.62,34.893z M36.98,29.899c-0.302,0.004-0.541,0.25-0.531,0.545c0.01,0.279,0.256,0.519,0.537,0.521
	c0.29,0.002,0.548-0.252,0.545-0.539C37.529,30.133,37.281,29.895,36.98,29.899z"/>
<path fill-rule="evenodd" clip-rule="evenodd" fill="#2D96C8" d="M217.461,40.708c-1.469,0.046-2.94,0.042-4.411,0.017
	c-1.523-0.025-2.961,0.225-4.245,1.1c-0.697,0.475-1.282,1.06-1.771,1.758c-0.34-0.377-0.635-0.752-0.979-1.078
	c-1.308-1.241-2.886-1.787-4.678-1.776c-1.517,0.008-3.034,0.008-4.552,0c-1.384-0.008-2.439-0.866-2.711-2.182
	c-0.323-1.565,0.904-3.126,2.503-3.159c1.021-0.021,2.042-0.008,3.063-0.01c0.157,0,0.314,0,0.519,0
	c-0.06-0.148-0.111-0.254-0.145-0.367c-0.158-0.536-0.325-1.07-0.462-1.611c-0.052-0.208-0.114-0.33-0.346-0.392
	c-2.072-0.554-3.699-2.54-3.548-5.004c0.133-2.159,1.798-4.035,4.009-4.406c1.634-0.275,3.057,0.187,4.239,1.349
	c0.156,0.154,0.276,0.188,0.484,0.112c1.71-0.62,3.426-0.624,5.137-0.005c0.216,0.078,0.34,0.042,0.507-0.117
	c1.383-1.318,3.019-1.755,4.841-1.189c1.844,0.573,2.978,1.867,3.325,3.769c0.456,2.491-1.065,4.841-3.511,5.501
	c-0.176,0.048-0.247,0.126-0.295,0.306c-0.165,0.62-0.36,1.233-0.545,1.848c-0.016,0.052-0.032,0.103-0.057,0.18
	c0.09,0.009,0.159,0.021,0.229,0.022c1.086,0.003,2.173-0.001,3.26,0.008c1.413,0.012,2.577,1.156,2.613,2.557
	C219.974,39.416,218.895,40.662,217.461,40.708z M199.258,25.963c-0.998,0.532-1.564,1.641-1.413,2.767
	c0.128,0.952,0.934,1.945,1.732,2.107c0.344-1.832,1.233-3.356,2.668-4.556C201.47,25.582,200.211,25.456,199.258,25.963z
	 M210.121,31.417c-1.641-1.38-4.22-1.474-5.956-0.216c-2.028,1.469-2.242,4.068-0.459,5.771c0.909,0.868,2.026,1.24,3.114,1.273
	c1.205,0.017,2.274-0.33,3.118-0.958C211.967,35.775,212.052,33.043,210.121,31.417z M214.437,30.837
	c0.779-0.131,1.596-1.139,1.733-2.12c0.163-1.153-0.473-2.321-1.527-2.806c-0.983-0.452-2.261-0.287-2.855,0.382
	C213.21,27.492,214.097,29.01,214.437,30.837z M204.829,34.089c-0.699-0.784-0.676-1.83,0.072-2.569
	c0.584-0.577,1.308-0.813,2.15-0.814c0.796,0.013,1.539,0.251,2.115,0.871c0.718,0.771,0.703,1.774-0.015,2.548
	C208.077,35.282,205.878,35.264,204.829,34.089z M201.543,42.914c2.407-0.014,4.36,1.885,4.376,4.256
	c0.017,2.383-1.9,4.317-4.296,4.335c-2.35,0.018-4.295-1.899-4.319-4.255C197.279,44.898,199.207,42.927,201.543,42.914z
	 M212.525,42.914c2.316,0.038,4.219,2.018,4.189,4.361c-0.029,2.328-2.007,4.266-4.319,4.232c-2.437-0.036-4.336-1.975-4.3-4.39
	C208.132,44.759,210.118,42.874,212.525,42.914z"/>
<path fill-rule="evenodd" clip-rule="evenodd" fill="#2D96C8" d="M61.42,223.175c0.087,0.047,0.163,0.086,0.237,0.127
	c0.549,0.301,0.825,0.901,0.692,1.504c-0.13,0.589-0.627,1.014-1.244,1.061c-0.213,0.017-0.483-0.042-0.624,0.066
	c-0.131,0.101-0.114,0.382-0.178,0.579c-0.694,2.138-2.136,3.496-4.344,3.884c-2.229,0.391-4.057-0.41-5.438-2.209
	c-0.038-0.049-0.079-0.095-0.119-0.144c-0.269,0.302-0.507,0.614-0.79,0.88c-1.516,1.421-3.302,1.911-5.302,1.356
	c-2.069-0.573-3.354-1.973-3.911-4.041c-0.097-0.36-0.088-0.372-0.481-0.362c-0.629,0.017-1.109-0.224-1.391-0.796
	c-0.31-0.63-0.074-1.396,0.554-1.747c0.203-0.113,0.25-0.237,0.25-0.451c-0.007-2.036,0.01-4.071-0.014-6.106
	c-0.006-0.565,0.369-1.043,1.021-1.04c2.211,0.01,4.423,0.002,6.635,0.001c0.449,0,0.897,0.003,1.347,0.002
	c0.07,0,0.14-0.011,0.224-0.018c0-2.456,0-4.896,0-7.359c-2.154,0-4.302,0-6.472,0c0,1.832,0,3.656,0,5.499
	c-0.609,0-1.198,0-1.815,0c-0.004-0.07-0.012-0.147-0.012-0.224c0-1.739,0-3.478,0.002-5.217c0.001-1.081,0.701-1.86,1.782-1.897
	c1.208-0.041,2.419-0.019,3.629-0.019c1.001,0.001,2.005-0.021,3.004,0.024c1.01,0.045,1.719,0.85,1.719,1.865
	c0,2.34,0,4.681-0.001,7.021c0,0.095,0,0.189,0,0.305c0.934,0,1.849,0,2.793,0c0-0.607,0-1.204,0-1.813c1.644,0,3.259,0,4.897,0
	c0,0.613,0,1.219,0,1.835c1.8,0.212,3.146,1.077,3.892,2.724C62.712,220.114,62.464,221.693,61.42,223.175z M58.574,223.964
	c-0.465-1.759-2.273-2.938-4.093-2.669c-1.648,0.243-3.136,1.763-3.12,3.223c0.561,0,1.104-0.007,1.648,0.004
	c0.165,0.003,0.231-0.053,0.289-0.205c0.346-0.901,1.282-1.371,2.202-1.119c0.833,0.229,1.378,0.998,1.333,1.883
	c-0.042,0.829-0.686,1.56-1.488,1.687c-0.905,0.144-1.72-0.303-2.045-1.144c-0.065-0.167-0.143-0.208-0.309-0.208
	c-1.707,0.006-3.414,0.007-5.121-0.001c-0.218-0.001-0.33,0.047-0.419,0.269c-0.319,0.793-1.097,1.204-1.986,1.089
	c-0.736-0.096-1.402-0.767-1.506-1.518c-0.117-0.839,0.311-1.627,1.067-1.967c0.956-0.428,2.06,0.032,2.461,1.021
	c0.032,0.077,0.104,0.195,0.161,0.197c0.591,0.014,1.182,0.008,1.783,0.008c-0.004-0.081-0.001-0.138-0.01-0.191
	c-0.386-2.17-2.559-3.521-4.684-2.912c-1.672,0.479-2.895,2.171-2.63,4.12c0.262,1.935,2.283,3.442,4.203,3.102
	c1.312-0.233,2.248-0.947,2.839-2.133c0.031-0.063,0.121-0.137,0.184-0.138c0.745-0.01,1.489-0.007,2.229-0.007
	c0.926,2.104,3.155,2.74,4.861,2.035C58.147,227.676,59.062,225.81,58.574,223.964z M53.192,212.075c1.621,0,3.24,0,4.873,0
	c0,0.283,0,0.561,0,0.86c-1.618,0-3.237,0-4.873,0C53.192,212.651,53.192,212.375,53.192,212.075z"/>
<path fill-rule="evenodd" clip-rule="evenodd" fill="#2D96C8" d="M120.662,225.302c0-0.433,0-0.845,0-1.257
	c0-2.131,0.003-4.262-0.005-6.393c-0.001-0.193-0.064-0.392-0.124-0.579c-0.711-2.216-1.428-4.43-2.141-6.646
	c-0.274-0.851,0.002-1.382,0.852-1.656c0.214-0.068,0.428-0.136,0.643-0.202c0.71-0.22,1.288,0.063,1.522,0.765
	c0.373,1.12,0.734,2.243,1.1,3.365c0.431,1.319,0.865,2.638,1.289,3.959c0.052,0.164,0.124,0.215,0.295,0.214
	c2.287-0.006,4.573-0.01,6.86,0.002c0.387,0.003,0.796,0.019,1.156,0.142c0.855,0.291,1.369,1.068,1.371,1.979
	c0.005,2.015,0.002,4.029,0.002,6.043c0,0.115,0,0.23,0,0.416c0.283-0.23,0.531-0.417,0.764-0.622
	c0.652-0.576,1.221-1.229,1.717-1.943c0.51-0.731,1-0.846,1.795-0.423c0.11,0.059,0.223,0.114,0.332,0.173
	c0.729,0.386,0.906,1.078,0.449,1.757c-0.94,1.396-2.091,2.59-3.467,3.563c-2.016,1.427-4.255,2.283-6.716,2.491
	c-3.532,0.299-6.715-0.659-9.542-2.79c-1.223-0.921-2.245-2.033-3.092-3.307c-0.404-0.608-0.244-1.309,0.388-1.668
	c0.195-0.11,0.396-0.213,0.598-0.313c0.598-0.294,1.159-0.155,1.532,0.395c0.56,0.826,1.213,1.565,1.974,2.212
	c0.114,0.097,0.233,0.188,0.352,0.28C120.583,225.273,120.608,225.278,120.662,225.302z M130.274,227.058
	c0-2.112,0.005-4.2-0.003-6.288c-0.002-0.438-0.302-0.699-0.771-0.7c-1.627-0.004-3.254-0.003-4.88,0
	c-0.463,0.001-0.75,0.288-0.751,0.749c-0.003,1.996,0,3.994-0.004,5.991c0,0.159,0.043,0.239,0.208,0.269
	c0.795,0.138,1.583,0.342,2.383,0.415C127.744,227.612,129.018,227.451,130.274,227.058z"/>
<path fill-rule="evenodd" clip-rule="evenodd" fill="#2D96C8" d="M219.077,227.762c-3.432,0.002-6.864,0.002-10.296,0.001
	c-4.188,0-8.375-0.001-12.563-0.003c-0.646,0-0.958-0.321-0.954-0.976c0.001-0.224-0.006-0.447,0.002-0.671
	c0.015-0.46,0.346-0.794,0.803-0.81c0.265-0.009,0.531-0.001,0.844-0.001c0-0.154,0-0.272,0-0.391c0-5.877,0-11.754,0-17.631
	c0-0.727,0.286-1.012,1.018-1.013c0.197,0,0.396-0.006,0.592,0.002c0.513,0.02,0.837,0.353,0.84,0.882
	c0.006,1.095,0.002,2.189,0.002,3.283c0,4.878-0.001,9.756-0.001,14.633c0,0.067,0.007,0.134,0.011,0.216c5.492,0,10.971,0,16.487,0
	c0-0.1,0-0.199,0-0.299c0-5.912-0.001-11.823,0-17.735c0-0.675,0.304-0.978,0.976-0.982c0.196-0.002,0.394-0.001,0.592,0.002
	c0.545,0.009,0.883,0.344,0.883,0.889c0.003,2.698,0.002,5.396,0.002,8.093c0,3.274,0,6.549-0.001,9.824c0,0.06,0,0.119,0,0.226
	c0.245,0,0.481-0.001,0.718,0c0.61,0.005,0.929,0.329,0.931,0.947c0,0.206,0.002,0.413,0.001,0.62
	C219.959,227.408,219.612,227.762,219.077,227.762z M210.042,218.657c-0.859-0.025-1.434-0.603-1.611-1.633c-1.088,0-2.18,0-3.271,0
	c-0.285,1.114-0.832,1.646-1.683,1.636c-0.849-0.009-1.405-0.561-1.654-1.654c-0.523,0-1.053,0-1.599,0c0-0.55,0-1.078,0-1.631
	c0.537,0,1.065,0,1.615,0c0.052-0.562,0.255-1.03,0.713-1.354c0.304-0.215,0.645-0.32,1.017-0.299
	c0.644,0.037,1.442,0.438,1.578,1.637c1.104,0,2.19,0,3.273,0c0.238-1.099,0.777-1.632,1.649-1.64
	c0.88-0.007,1.431,0.528,1.68,1.646c1.073,0,2.151,0,3.25,0c0,0.549,0,1.077,0,1.635c-1.088,0-2.173,0-3.25,0
	C211.506,218.122,210.92,218.683,210.042,218.657z M206.769,224.45c-0.675-0.018-1.507-0.452-1.635-1.655c-1.642,0-3.269,0-4.911,0
	c0-0.544,0-1.066,0-1.622c1.63,0,3.263,0,4.918,0c0.044-0.566,0.249-1.025,0.693-1.351c0.301-0.221,0.645-0.324,1.014-0.311
	c0.852,0.03,1.405,0.598,1.603,1.646c2.173,0,4.351,0,6.548,0c0,0.549,0,1.077,0,1.636c-2.184,0-4.367,0-6.544,0
	C208.236,223.88,207.628,224.472,206.769,224.45z M213.476,212.573c-0.309,0.209-0.649,0.311-1.02,0.289
	c-0.825-0.048-1.357-0.605-1.559-1.634c-0.808,0-1.619,0-2.459,0c-0.049,0.557-0.267,1.033-0.749,1.357
	c-0.303,0.204-0.637,0.3-0.998,0.274c-0.847-0.059-1.38-0.616-1.559-1.642c-1.627,0-3.261,0-4.924,0c0-0.538-0.001-1.028,0-1.519
	c0-0.033,0.01-0.065,0.018-0.117c1.635,0,3.261,0,4.911,0c0.051-0.561,0.251-1.029,0.708-1.354c0.313-0.222,0.664-0.318,1.044-0.3
	c0.818,0.04,1.359,0.604,1.557,1.632c0.815,0,1.634,0,2.45,0c0.214-1.063,0.767-1.615,1.624-1.633
	c0.883-0.02,1.433,0.508,1.704,1.648c0.249,0,0.504,0,0.776,0c0,0.55,0,1.078,0,1.63c-0.261,0-0.515,0-0.793,0
	C214.149,211.772,213.951,212.25,213.476,212.573z"/>
</svg>
